<svg xmlns="http://www.w3.org/2000/svg" xmlns:xlink="http://www.w3.org/1999/xlink" id="Capa_1" x="0px" y="0px" viewBox="0 0 600 109.5" style="enable-background:new 0 0 600 109.5;" xml:space="preserve"><style type="text/css">	.st0{fill:#FFCD00;}	.st1{fill:#FFFFFF;}	.st2{fill:#F7CD00;}</style><path class="st0" d="M596.5,95.4c0,3.9-0.1,7.9,0,11.8c0.1,1.6-0.3,2.1-1.9,1.8c-0.7-0.1-1.5,0-2.3,0c-194.5,0-389,0-583.5,0.1 c-3.4,0-4.5-0.7-4.2-4.2c0.3-3.2,0.1-6.4,0.1-9.6C6,94.2,7.5,94.1,9,94.1c1.4,0,2.7,0,4.1,0c191.7,0,383.4,0,575.1,0 C591,94.1,594,93.3,596.5,95.4z"></path><path class="st0" d="M336.8,54.4c-2.9,9-5.1,17.8-8.5,26.1c-2.1,5.3-7.7,7.3-13.1,7.5c-10.3,0.4-20.6,0.2-30.9,0.1 c-5.2-0.1-8.1-4.2-6.9-9.9c2.2-10.2,5.3-20.1,8.9-29.8c1.7-4.6,6-6.9,10.7-7.5c13.6-1.7,27.2-0.6,40.9-0.8c2.2,0,2.6,1,1.9,2.8 c0,0.1,0,0.3-0.1,0.4c-2.3,8.2-2.3,8.2-10.9,8.2c-7,0-14,0.1-20.9-0.1c-4.1-0.1-6.6,1.6-8.1,5.2c-2.2,5.3-3.5,10.9-5.1,16.3 c-0.8,2.6,0.4,3.4,2.5,3.6c4.2,0.3,8.5,0.6,12.7,0.6c3.1,0,5.3-1.3,6.2-4.7c1.3-5.1,3-10.1,4.3-15.2c0.5-2.2,1.4-3,3.7-2.9 C328,54.6,332.1,54.4,336.8,54.4z"></path><path class="st1" d="M96.8,86.9c3.6-10.7,7.2-21.2,10.7-31.8c0.3-0.9,0.6-1.8,1.7-1.7c4.2,0.1,8.5,0,12.7,0.3 c2.2,0.1,0.9,1.8,0.7,2.7c-1.9,6.8-3.9,13.6-6,21c5.9,0,11.5-0.1,17,0.1c2,0.1,2.6-1.1,3.1-2.6c2-6.3,4.2-12.6,6.1-19 c1.3-4.4,0.2-5.9-4.4-6c-8.6-0.2-17.3-0.3-25.9-0.3c-2.4,0-3.2-0.4-2.2-3c3.3-9.1,0.5-7.3,9.9-7.3c9.8,0.1,19.7,0.3,29.5,0.6 c10,0.3,12.9,4.1,10.2,13.5c-2,7.1-4.4,14.1-6.4,21.2c-2.3,8.1-8.2,11.7-15.8,12C124.2,87.2,110.7,86.9,96.8,86.9z"></path><path class="st0" d="M264.2,43.2c-5.3,0-10.6,0-15.9,0c-1.5,0-3.1-0.2-4.4,0.7c-2.5,1.7-5.9,3.2-5,6.7c0.8,3.3,4.2,2.9,6.8,2.9 c7.1,0,14.3,0,21.4,0c7.6,0,9.6,2.1,9.5,9.7c-0.2,9.4-0.2,9.4-9.7,9.4c-1.8,0-3.6-0.1-5.5,0c-2.5,0.1-4.9,0.6-4.8-3.5 c0-2.4-2.3-3.1-4.7-3.2c-8.2-0.1-16.4-0.5-24.5-0.6c-5.7-0.1-7.9-1.9-7.7-7.6c0.4-10.4,2.8-20.1,12.9-25.7c3.8-2.1,8.2-1.9,12.4-2 c13.5-0.2,27,0,40.5-0.1c3.7,0,3.6,0.7,2.6,4.1c-2.1,7.8-6.5,10.7-14.4,9.3c-3.1-0.5-6.4-0.1-9.5-0.1 C264.2,43.3,264.2,43.2,264.2,43.2z"></path><path class="st0" d="M403.3,52.6c-10.2,0-10.2,0-5.1-9.1c1-1.8,2.1-2.7,4.2-2.7c15.1,0.3,30.3,0.6,45.5,0.7c2.6,0,2.9,1,1.8,3 c-0.1,0.1-0.2,0.2-0.2,0.4c-1.9,7-6.3,9-13.4,8.4c-8-0.7-8.1-0.1-10.6,7.3c-2.7,8-5.3,16-7.6,24c-0.9,3-2.2,4.3-5.5,4.7 c-11.3,1.5-11.7,1.2-8.2-9.5c2.6-7.9,5-15.8,7.8-23.6c1.1-3.2,0.5-4.1-2.8-3.8C407.2,52.8,405.3,52.6,403.3,52.6z"></path><path class="st1" d="M77.6,39.2c6.8,0.4,13.6-0.6,20.4,0.6c7.3,1.3,9.6,5,7.3,11.9c-3.6,10.7-7.3,21.4-10.8,32.2 c-0.9,2.7-2.2,3.6-4.9,3.2c-3.6-0.5-8.7,1.6-10.6-1.2c-1.3-1.9,1.6-6.6,2.6-10.1c2.2-6.9,4.5-13.8,6.6-20.7c1.4-4.4,0.6-5.4-4.1-5.5 c-8.8-0.2-17.6-0.3-26.4-0.2c-2.7,0-3.3-0.6-2.4-3.4c2.2-6.8,2.1-6.9,8.9-6.9C68.8,39.1,73.2,39.2,77.6,39.2z"></path><path class="st1" d="M182.6,39.7c-3.6,10.7-7,20.6-10.4,30.6c-2.1,6.1-1.5,6.9,4.8,7.1c8.2,0.2,16.4,0.5,24.6,0.6 c2.9,0,3.7,0.2,3.1,3.7c-0.9,4.6-2.9,5.6-7.2,5.5c-10.4-0.3-20.9,0-31.4-0.1c-8.9,0-12.1-4.5-9.2-12.8c3.6-10.6,7.4-21.1,10.8-31.8 c0.8-2.3,1.8-3.1,4.2-3C175.1,39.8,178.6,39.7,182.6,39.7z"></path><path class="st1" d="M54.8,29c-6,18.7-11.9,36.9-17.8,55.1c-0.2,0.7-0.3,1.8-1.2,1.8c-4.5,0.1-9.1,0.3-13.6-0.1 c-2.2-0.2-0.5-2.2-0.2-3.3c4.3-14.1,8.7-28.2,13.2-42.3c1.2-3.7,1.1-8.8,4-10.6c2.7-1.7,7.3-0.5,11.1-0.5C51.6,29,52.8,29,54.8,29z"></path><path class="st0" d="M243.3,74.6c9.1,0,18.2,0.2,27.2-0.1c3.5-0.1,4.1,1.4,3.6,4.3c-1,6.8-3.8,9.3-10.7,9.3c-17.1,0-34.2-0.1-51.3,0 c-3.8,0-4.2-1-3-4.4c3.3-9.2,3.1-9.2,12.8-9.2c7.1,0,14.2,0,21.4,0C243.3,74.5,243.3,74.6,243.3,74.6z"></path><path class="st0" d="M328.1,87.8c3.7-10.6,7.4-20.9,10.9-31.2c0.6-1.7,1.6-2.3,3.4-2.2c3,0.1,6.1,0,9.1,0.1c2,0.1,5.2-1.3,3.9,3.3 c-0.5,1.8,1.6,1.2,2.6,1.2c7.4,0.1,14.8,0.2,22.2,0.1c3.2,0,4.2,0.4,3.2,4.1c-1.4,4.9-4,6.4-9,6c-6.8-0.5-13.6-0.1-20.4-0.2 c-2.3-0.1-3.5,0.7-4.2,2.9c-1.6,4.5-3.7,8.9-5,13.5c-0.9,3.1-2.5,3.7-5.2,3.4C335.9,88.3,332.3,88.2,328.1,87.8z"></path><path class="st2" d="M366.3,52.5c-7.3,0-14.5-0.1-21.8,0.1c-3.2,0.1-3.5-1.1-2.7-3.7c2.5-8.7,2.5-9.1,11.6-8.5 c12.7,0.7,25.4,0.4,38.1,0.4c3.1,0,3.4,0.7,2.5,3.6c-2.8,8.3-2.6,8.3-11.3,8.3c-5.5,0-10.9,0-16.3,0 C366.3,52.6,366.3,52.5,366.3,52.5z"></path><path class="st1" d="M42.2,86.4c3.8-11,7.4-21.4,10.9-31.8c0.5-1.4,1.4-1.8,2.7-1.8c3.6,0.1,7.3,0.1,10.9,0.1c2.1,0,2.2,1.1,1.7,2.6 c-3.2,9.7-6.5,19.4-9.6,29.2c-0.6,1.8-1.7,1.8-3.1,1.7C51.5,86.3,47.3,86.4,42.2,86.4z"></path><path class="st1" d="M210.2,40.1c8.4,0.2,8.4,0.2,5.9,7.3c-2.6,7.4-5.4,14.8-7.8,22.3c-0.9,2.6-2.1,3.4-4.8,3.5 c-10.7,0.3-10.7,0.4-7.3-9.5c2-5.8,4.4-11.6,6-17.6C203.5,41.2,205.6,38.6,210.2,40.1z"></path><g>	<path class="st1" d="M2.6,23.7h468.1l10.7,22c0,0,4.1,7.7,7.7,0l9.6-24.7c0,0,1.7-4.9,3.7,0l7.6,12.7c0,0,4,4.5,7.1,0l10-21.5  c0,0,1.5-5.4,4.2,0l8.1,19.3c0,0,5.2,8.4,9-0.2l7.6-13c0,0,2.2-4.4,4.2,0l3.4,5.6l35,0.2v-2.9H566l-4.4-6.4c0,0-4.2-4.9-7.1,0  L546,30.3c0,0-1.5,3.5-3.4,0L533,9.8c0,0-2.9-7.5-8.1,0l-8.8,19.8c0,0-2,5.7-5.4-0.7l-6.1-10.3c0,0-3.9-5.6-7.8-0.2l-9.3,24.2  c0,0-2.2,6.4-4.4,0l-8-17c0,0-0.8-1.8-3-4.5L2.6,20.8V23.7z"></path></g></svg>